<svg width="95" height="96" viewBox="0 0 95 96" fill="none" xmlns="http://www.w3.org/2000/svg">
<g id="&#240;&#159;&#166;&#134; icon &#34;User Circle&#34;">
<path id="Vector" d="M47.4331 0.780029C21.278 0.780029 0.0866699 21.9714 0.0866699 48.1265C0.0866699 74.2816 21.278 95.4729 47.4331 95.4729C73.5882 95.4729 94.7795 74.2816 94.7795 48.1265C94.7795 21.9714 73.5882 0.780029 47.4331 0.780029ZM47.4331 19.1077C56.7115 19.1077 64.2335 26.6297 64.2335 35.908C64.2335 45.1864 56.7115 52.7084 47.4331 52.7084C38.1547 52.7084 30.6328 45.1864 30.6328 35.908C30.6328 26.6297 38.1547 19.1077 47.4331 19.1077ZM47.4331 84.7818C36.2265 84.7818 26.1845 79.7035 19.4643 71.7615C23.0535 65.0032 30.0791 60.3449 38.2693 60.3449C38.7275 60.3449 39.1857 60.4213 39.6248 60.5549C42.1066 61.3567 44.703 61.8722 47.4331 61.8722C50.1632 61.8722 52.7787 61.3567 55.2414 60.5549C55.6805 60.4213 56.1387 60.3449 56.5969 60.3449C64.7871 60.3449 71.8127 65.0032 75.4019 71.7615C68.6817 79.7035 58.6397 84.7818 47.4331 84.7818Z" fill="black"/>
</g>
</svg>
