<svg width="32" height="32" viewBox="0 0 32 32" fill="none" xmlns="http://www.w3.org/2000/svg">
<g id="search">
<g id="Union">
<mask id="path-1-inside-1_0_277" fill="white">
<path fill-rule="evenodd" clip-rule="evenodd" d="M24.1777 20.4947C24.0146 20.3316 23.9853 20.0786 24.0983 19.8774C24.9909 18.2874 25.5 16.4532 25.5 14.5C25.5 8.42487 20.5751 3.5 14.5 3.5C8.42487 3.5 3.5 8.42487 3.5 14.5C3.5 20.5751 8.42487 25.5 14.5 25.5C16.4532 25.5 18.2874 24.9909 19.8774 24.0983C20.0786 23.9853 20.3316 24.0146 20.4947 24.1777L25.5542 29.2372C26.5713 30.2543 28.2202 30.2543 29.2372 29.2372C30.2543 28.2202 30.2543 26.5713 29.2372 25.5542L24.1777 20.4947Z"/>
</mask>
<path fill-rule="evenodd" clip-rule="evenodd" d="M24.1777 20.4947C24.0146 20.3316 23.9853 20.0786 24.0983 19.8774C24.9909 18.2874 25.5 16.4532 25.5 14.5C25.5 8.42487 20.5751 3.5 14.5 3.5C8.42487 3.5 3.5 8.42487 3.5 14.5C3.5 20.5751 8.42487 25.5 14.5 25.5C16.4532 25.5 18.2874 24.9909 19.8774 24.0983C20.0786 23.9853 20.3316 24.0146 20.4947 24.1777L25.5542 29.2372C26.5713 30.2543 28.2202 30.2543 29.2372 29.2372C30.2543 28.2202 30.2543 26.5713 29.2372 25.5542L24.1777 20.4947Z" fill="#FFC700"/>
<path d="M19.8774 24.0983L19.143 22.7903L19.8774 24.0983ZM24.0983 19.8774L25.4062 20.6117L24.0983 19.8774ZM24 14.5C24 16.1894 23.5604 17.7715 22.7903 19.143L25.4062 20.6117C26.4215 18.8033 27 16.717 27 14.5H24ZM14.5 5C19.7467 5 24 9.25329 24 14.5H27C27 7.59644 21.4036 2 14.5 2V5ZM5 14.5C5 9.25329 9.25329 5 14.5 5V2C7.59644 2 2 7.59644 2 14.5H5ZM14.5 24C9.25329 24 5 19.7467 5 14.5H2C2 21.4036 7.59644 27 14.5 27V24ZM19.143 22.7903C17.7715 23.5604 16.1894 24 14.5 24V27C16.717 27 18.8033 26.4215 20.6117 25.4062L19.143 22.7903ZM26.6149 28.1766L21.5554 23.1171L19.4341 25.2384L24.4936 30.2979L26.6149 28.1766ZM28.1766 28.1766C27.7453 28.6078 27.0461 28.6078 26.6149 28.1766L24.4936 30.2979C26.0964 31.9007 28.6951 31.9007 30.2979 30.2979L28.1766 28.1766ZM28.1766 26.6149C28.6078 27.0461 28.6078 27.7453 28.1766 28.1766L30.2979 30.2979C31.9007 28.6951 31.9007 26.0964 30.2979 24.4936L28.1766 26.6149ZM23.1171 21.5554L28.1766 26.6149L30.2979 24.4936L25.2384 19.4341L23.1171 21.5554ZM20.6117 25.4062C20.2547 25.6067 19.7685 25.5728 19.4341 25.2384L21.5554 23.1171C20.8946 22.4563 19.9024 22.364 19.143 22.7903L20.6117 25.4062ZM22.7903 19.143C22.364 19.9024 22.4563 20.8946 23.1171 21.5554L25.2384 19.4341C25.5728 19.7685 25.6067 20.2547 25.4062 20.6117L22.7903 19.143Z" fill="black" mask="url(#path-1-inside-1_0_277)"/>
</g>
<circle id="Ellipse 53" cx="14.5" cy="14.5" r="6.75" fill="#FFF4D9" stroke="black" stroke-width="1.5"/>
<path id="Ellipse 54" d="M11.25 13.75C11.25 12.0931 12.5931 10.75 14.25 10.75" stroke="black" stroke-width="1.5" stroke-linecap="round"/>
</g>
</svg>
