<svg width="50" height="50" viewBox="0 0 50 50" fill="none" xmlns="http://www.w3.org/2000/svg">
<g id="&#240;&#159;&#166;&#134; icon &#34;Instagram&#34;">
<path id="Vector" d="M25.0273 12.5201C18.056 12.5201 12.4329 18.1432 12.4329 25.1144C12.4329 32.0857 18.056 37.7087 25.0273 37.7087C31.9985 37.7087 37.6216 32.0857 37.6216 25.1144C37.6216 18.1432 31.9985 12.5201 25.0273 12.5201ZM25.0273 33.3024C20.5222 33.3024 16.8393 29.6304 16.8393 25.1144C16.8393 20.5985 20.5113 16.9265 25.0273 16.9265C29.5432 16.9265 33.2152 20.5985 33.2152 25.1144C33.2152 29.6304 29.5323 33.3024 25.0273 33.3024ZM41.0743 12.005C41.0743 13.6382 39.759 14.9425 38.1367 14.9425C36.5035 14.9425 35.1992 13.6272 35.1992 12.005C35.1992 10.3827 36.5145 9.06738 38.1367 9.06738C39.759 9.06738 41.0743 10.3827 41.0743 12.005ZM49.4157 14.9864C49.2294 11.0513 48.3306 7.56571 45.4478 4.6939C42.576 1.82209 39.0904 0.923282 35.1553 0.725982C31.0997 0.495799 18.9438 0.495799 14.8882 0.725982C10.9642 0.912321 7.47853 1.81113 4.59576 4.68294C1.71299 7.55475 0.825137 11.0404 0.627838 14.9754C0.397654 19.031 0.397654 31.1869 0.627838 35.2425C0.814176 39.1775 1.71299 42.6632 4.59576 45.535C7.47853 48.4068 10.9532 49.3056 14.8882 49.5029C18.9438 49.7331 31.0997 49.7331 35.1553 49.5029C39.0904 49.3166 42.576 48.4178 45.4478 45.535C48.3196 42.6632 49.2184 39.1775 49.4157 35.2425C49.6459 31.1869 49.6459 19.042 49.4157 14.9864ZM44.1763 39.5941C43.3213 41.7424 41.6662 43.3976 39.5069 44.2635C36.2734 45.5459 28.6006 45.25 25.0273 45.25C21.4539 45.25 13.7702 45.535 10.5476 44.2635C8.39926 43.4085 6.74413 41.7534 5.87821 39.5941C4.59576 36.3605 4.89171 28.6878 4.89171 25.1144C4.89171 21.5411 4.60672 13.8574 5.87821 10.6348C6.73317 8.48644 8.3883 6.83132 10.5476 5.96539C13.7812 4.68294 21.4539 4.97889 25.0273 4.97889C28.6006 4.97889 36.2843 4.6939 39.5069 5.96539C41.6553 6.82036 43.3104 8.47548 44.1763 10.6348C45.4588 13.8683 45.1628 21.5411 45.1628 25.1144C45.1628 28.6878 45.4588 36.3715 44.1763 39.5941Z" fill="black"/>
</g>
</svg>
