<svg width="46" height="40" viewBox="0 0 46 40" fill="none" xmlns="http://www.w3.org/2000/svg">
<g id="&#240;&#159;&#166;&#134; icon &#34;Hamburger&#34;">
<path id="Vector" d="M41.2538 20.2069H4.90141C3.78896 20.2069 2.72207 20.6488 1.93545 21.4355C1.14883 22.2221 0.706909 23.289 0.706909 24.4014C0.706909 25.5139 1.14883 26.5808 1.93545 27.3674C2.72207 28.154 3.78896 28.5959 4.90141 28.5959H41.2538C42.3662 28.5959 43.4331 28.154 44.2198 27.3674C45.0064 26.5808 45.4483 25.5139 45.4483 24.4014C45.4483 23.289 45.0064 22.2221 44.2198 21.4355C43.4331 20.6488 42.3662 20.2069 41.2538 20.2069ZM42.652 31.3923H3.50325C3.13243 31.3923 2.7768 31.5396 2.51459 31.8018C2.25238 32.064 2.10508 32.4196 2.10508 32.7904V34.1886C2.10508 35.6719 2.6943 37.0944 3.74313 38.1432C4.79196 39.1921 6.21448 39.7813 7.69775 39.7813H38.4575C39.9407 39.7813 41.3632 39.1921 42.4121 38.1432C43.4609 37.0944 44.0501 35.6719 44.0501 34.1886V32.7904C44.0501 32.4196 43.9028 32.064 43.6406 31.8018C43.3784 31.5396 43.0228 31.3923 42.652 31.3923ZM5.8312 17.4106H40.324C43.3449 17.4106 45.097 13.5744 43.3668 10.7798C39.8556 5.10671 32.1264 0.641307 23.0776 0.632568C14.0297 0.641307 6.29958 5.10671 2.78843 10.7789C1.05645 13.5735 2.81028 17.4106 5.8312 17.4106ZM34.263 7.62341C34.5395 7.62341 34.8098 7.70541 35.0397 7.85905C35.2697 8.01268 35.4489 8.23104 35.5547 8.48652C35.6605 8.74201 35.6882 9.02313 35.6343 9.29435C35.5803 9.56557 35.4471 9.8147 35.2516 10.0102C35.0561 10.2058 34.8069 10.3389 34.5357 10.3929C34.2645 10.4468 33.9834 10.4191 33.7279 10.3133C33.4724 10.2075 33.2541 10.0283 33.1004 9.79836C32.9468 9.56843 32.8648 9.29811 32.8648 9.02158C32.8648 8.65076 33.0121 8.29513 33.2743 8.03293C33.5365 7.77072 33.8921 7.62341 34.263 7.62341ZM23.0776 4.82707C23.3541 4.82707 23.6245 4.90908 23.8544 5.06271C24.0843 5.21634 24.2635 5.4347 24.3693 5.69019C24.4752 5.94567 24.5029 6.22679 24.4489 6.49801C24.395 6.76923 24.2618 7.01836 24.0663 7.2139C23.8707 7.40943 23.6216 7.5426 23.3504 7.59655C23.0792 7.65049 22.798 7.62281 22.5425 7.51698C22.2871 7.41116 22.0687 7.23195 21.9151 7.00202C21.7614 6.7721 21.6794 6.50177 21.6794 6.22524C21.6794 5.85443 21.8267 5.4988 22.089 5.23659C22.3512 4.97438 22.7068 4.82707 23.0776 4.82707ZM11.8923 7.62341C12.1688 7.62341 12.4391 7.70541 12.669 7.85905C12.899 8.01268 13.0782 8.23104 13.184 8.48652C13.2898 8.74201 13.3175 9.02313 13.2636 9.29435C13.2096 9.56557 13.0764 9.8147 12.8809 10.0102C12.6854 10.2058 12.4362 10.3389 12.165 10.3929C11.8938 10.4468 11.6127 10.4191 11.3572 10.3133C11.1017 10.2075 10.8834 10.0283 10.7297 9.79836C10.5761 9.56843 10.4941 9.29811 10.4941 9.02158C10.4941 8.65076 10.6414 8.29513 10.9036 8.03293C11.1658 7.77072 11.5214 7.62341 11.8923 7.62341Z" fill="black"/>
</g>
</svg>
