<svg width="57" height="46" viewBox="0 0 57 46" fill="none" xmlns="http://www.w3.org/2000/svg">
<g id="&#240;&#159;&#166;&#134; icon &#34;Twitter&#34;">
<path id="Vector" d="M50.5155 11.6589C50.551 12.1557 50.551 12.6526 50.551 13.1495C50.551 28.3027 39.0176 45.7627 17.9378 45.7627C11.4435 45.7627 5.41059 43.8818 0.335815 40.617C1.25853 40.7234 2.14564 40.7589 3.10385 40.7589C8.46242 40.7589 13.3953 38.9491 17.3344 35.8617C12.2952 35.7552 8.07212 32.4548 6.6171 27.9124C7.32691 28.0187 8.03662 28.0898 8.78193 28.0898C9.81104 28.0898 10.8403 27.9477 11.7984 27.6994C6.5462 26.6347 2.60694 22.0214 2.60694 16.4498V16.3079C4.13285 17.1596 5.90739 17.6919 7.78811 17.7628C4.70066 15.7045 2.67794 12.1912 2.67794 8.21658C2.67794 6.08735 3.24564 4.13553 4.23936 2.4321C9.88194 9.3877 18.3636 13.9301 27.8742 14.427C27.6968 13.5753 27.5903 12.6881 27.5903 11.8009C27.5903 5.48404 32.7005 0.338379 39.0528 0.338379C42.3532 0.338379 45.3341 1.7224 47.4279 3.95813C50.0185 3.46132 52.5026 2.50311 54.7029 1.19009C53.8511 3.85173 52.0413 6.08746 49.6637 7.50687C51.9704 7.25858 54.2061 6.61966 56.2644 5.73255C54.7032 8.00368 52.7512 10.0264 50.5155 11.6589Z" fill="black"/>
</g>
</svg>
